<svg width="210" height="40" viewBox="0 0 210 40" fill="none" xmlns="http://www.w3.org/2000/svg"><path fill-rule="evenodd" clip-rule="evenodd" d="M27.142 40c4.388 0 7.978-3.59 7.978-7.978V13.356c0-5.769-2.932-8.003-7.978-7.978-2.15.01-8.7 6.82-15.05 13.267-4.668 4.74-9.389 9.01-11.355 11.635C-.985 32.578-.125 40 8.05 40h19.091Z" fill="#5CBEFE"/><path fill-rule="evenodd" clip-rule="evenodd" d="M16.343 0c-4.388 0-7.978 3.59-7.978 7.978v18.666c0 5.77 2.932 8.003 7.978 7.978 2.15-.01 8.7-6.82 15.05-13.267 4.668-4.74 9.389-9.01 11.355-11.635C44.47 7.422 43.609 0 35.434 0H16.343Z" fill="#EF5579"/><path fill-rule="evenodd" clip-rule="evenodd" d="M35.12 17.651v-4.295c0-5.769-2.932-8.003-7.978-7.978-2.15.01-8.7 6.82-15.05 13.267a293.582 293.582 0 0 1-3.727 3.704v4.295c0 5.77 2.932 8.003 7.978 7.978 2.15-.01 8.7-6.82 15.05-13.267a294.113 294.113 0 0 1 3.727-3.704Z" fill="#545DB6"/><path d="M63.126 30.788c-1.917 0-3.605-.393-5.066-1.178a8.421 8.421 0 0 1-3.409-3.395c-.812-1.47-1.218-3.231-1.218-5.285v-.78c0-1.926.383-3.628 1.15-5.107a8.503 8.503 0 0 1 3.272-3.49c1.424-.85 3.112-1.274 5.066-1.274 1.369 0 2.66.187 3.874.561a9.354 9.354 0 0 1 3.327 1.821v4.97h-3.217l-.439-2.985a6.47 6.47 0 0 0-.985-.548 5.381 5.381 0 0 0-1.123-.355 6.484 6.484 0 0 0-1.3-.124c-1.078 0-2.008.26-2.793.78-.785.521-1.392 1.265-1.821 2.232-.43.968-.644 2.131-.644 3.491v.808c0 1.314.22 2.465.657 3.45.448.977 1.078 1.734 1.89 2.273.812.538 1.757.808 2.834.808.566 0 1.132-.06 1.697-.178a10.098 10.098 0 0 0 1.588-.493l.452-2.807h3.218v4.874c-.785.53-1.776.986-2.971 1.37-1.187.373-2.533.56-4.039.56Zm15.99 0c-1.496 0-2.778-.315-3.846-.945a6.35 6.35 0 0 1-2.437-2.656c-.557-1.141-.835-2.46-.835-3.957v-.274c0-1.478.278-2.783.835-3.915a6.35 6.35 0 0 1 2.437-2.656c1.058-.648 2.332-.972 3.82-.972 1.487 0 2.76.32 3.82.958a6.26 6.26 0 0 1 2.422 2.656c.566 1.132.85 2.442.85 3.93v.273c0 1.488-.284 2.802-.85 3.943a6.26 6.26 0 0 1-2.423 2.656c-1.05.64-2.314.959-3.792.959Zm0-3.341c.64 0 1.155-.173 1.548-.52.401-.347.694-.835.876-1.465.192-.63.287-1.374.287-2.232v-.274c0-.83-.095-1.556-.287-2.176-.183-.63-.475-1.123-.876-1.479-.402-.356-.927-.534-1.575-.534-.638 0-1.159.178-1.56.534-.402.356-.694.849-.877 1.479-.182.62-.273 1.346-.273 2.176v.274c0 .858.09 1.607.273 2.245.183.63.475 1.119.877 1.465.401.338.93.507 1.588.507Zm8.94 3.053v-2.587l2.11-.425v-8.776l-2.11-.424v-2.601h8.174v2.6l-1.698.425v2.437h1.356l1.958-3.04c.556-.884 1.145-1.546 1.766-1.984.63-.447 1.396-.671 2.3-.671.538 0 1.008.068 1.41.205.411.137.794.315 1.15.534l-.753 3.04c-.21-.064-.37-.11-.479-.137a1.312 1.312 0 0 0-.342-.041c-.302 0-.594.1-.877.3a2.8 2.8 0 0 0-.753.781l-1.643 2.52 3.081 4.928 2.04.329V30.5h-6.038l-2.71-5.326h-1.466v2.314l1.698.425V30.5h-8.173Zm18.073 5.695v-2.6l1.889-.425V18.712l-2.109-.424v-2.601h6.175l.178 1.697c.42-.63.926-1.113 1.52-1.45.593-.348 1.314-.521 2.163-.521 1.177 0 2.186.324 3.025.972.849.648 1.497 1.556 1.944 2.724.457 1.16.685 2.515.685 4.066v.288c0 1.46-.228 2.743-.685 3.847-.447 1.104-1.099 1.962-1.957 2.574-.849.602-1.871.904-3.067.904-.767 0-1.442-.137-2.026-.411a4.221 4.221 0 0 1-1.493-1.246v4.039l1.808.424v2.601h-8.05Zm8.46-8.748c.95 0 1.625-.356 2.027-1.068.401-.712.602-1.684.602-2.916v-.288c0-.876-.091-1.642-.274-2.3-.182-.657-.47-1.168-.862-1.533-.384-.365-.89-.548-1.52-.548a2.5 2.5 0 0 0-1.287.329c-.374.21-.675.525-.904.945v6.27c.229.365.53.643.904.835.383.183.822.274 1.314.274Zm13.54 3.34c-1.46 0-2.633-.396-3.518-1.19-.876-.804-1.314-1.885-1.314-3.245 0-.922.246-1.739.739-2.45.502-.713 1.25-1.27 2.245-1.671.995-.402 2.232-.603 3.71-.603h1.767v-.985c0-.658-.192-1.2-.575-1.63-.375-.429-.95-.643-1.726-.643-.374 0-.716.046-1.026.137-.302.091-.58.223-.835.397l-.315 1.917h-3.122l-.055-3.97c.804-.411 1.662-.754 2.574-1.027.913-.274 1.926-.411 3.04-.411 1.98 0 3.546.456 4.696 1.369s1.725 2.213 1.725 3.902V27.105c.009.191.032.378.068.561l1.561.247V30.5h-5.257a9.778 9.778 0 0 1-.343-.74 3.725 3.725 0 0 1-.246-.848c-.466.575-1 1.031-1.602 1.369-.602.338-1.333.507-2.191.507Zm1.26-3.162a3.1 3.1 0 0 0 1.328-.301 2.75 2.75 0 0 0 1.041-.822v-2.245h-1.739c-.767 0-1.356.173-1.766.52-.402.347-.603.776-.603 1.287 0 .493.155.876.466 1.15.319.274.744.411 1.273.411Zm12.856 2.875v-2.587l2.094-.425v-8.474h-2.286l-.151 1.916h-3.285v-5.243h15.908v5.243h-3.299l-.151-1.916h-2.341v8.474l2.081.425V30.5h-8.57Zm14.087 0v-2.587l2.095-.425v-8.776l-2.095-.424v-2.601h8.311v2.6l-1.821.425v5.531l.082.014 4.312-8.57h6.462v2.6l-2.08.425v8.776l2.08.425V30.5h-8.296v-2.587l1.834-.425V21.93l-.082-.014-4.312 8.584h-6.49Zm19.592 0v-2.587l2.108-.425v-8.776l-2.108-.424v-2.601h8.173v2.6l-1.698.425v2.437h1.356l1.958-3.04c.556-.884 1.145-1.546 1.766-1.984.63-.447 1.396-.671 2.3-.671.538 0 1.008.068 1.41.205.411.137.794.315 1.15.534l-.753 3.04c-.21-.064-.37-.11-.479-.137a1.312 1.312 0 0 0-.342-.041c-.302 0-.594.1-.877.3a2.8 2.8 0 0 0-.753.781l-1.643 2.52 3.081 4.928 2.04.329V30.5h-6.038l-2.711-5.326h-1.465v2.314l1.698.425V30.5h-8.173Zm23.096.288c-1.46 0-2.633-.398-3.519-1.192-.876-.803-1.314-1.884-1.314-3.244 0-.922.247-1.739.739-2.45.502-.713 1.251-1.27 2.246-1.671.995-.402 2.231-.603 3.71-.603h1.766v-.985c0-.658-.192-1.2-.575-1.63-.374-.429-.949-.643-1.725-.643-.374 0-.716.046-1.027.137a3.063 3.063 0 0 0-.835.397l-.315 1.917h-3.121l-.055-3.97c.803-.411 1.661-.754 2.574-1.027.913-.274 1.926-.411 3.039-.411 1.981 0 3.546.456 4.696 1.369s1.725 2.213 1.725 3.902V27.105c.009.191.032.378.069.561l1.56.247V30.5h-5.257a9.802 9.802 0 0 1-.342-.74 3.728 3.728 0 0 1-.247-.848 5.54 5.54 0 0 1-1.601 1.369c-.603.338-1.333.507-2.191.507Zm1.26-3.163a3.1 3.1 0 0 0 1.328-.301c.429-.201.775-.475 1.04-.822v-2.245h-1.739c-.766 0-1.355.173-1.766.52-.401.347-.602.776-.602 1.287 0 .493.155.876.465 1.15.32.274.744.411 1.274.411Z" fill="#343434"/></svg>