<svg xmlns="http://www.w3.org/2000/svg" xmlns:xlink="http://www.w3.org/1999/xlink"><defs><filter id="a" x=".25" y=".25" width="23.5" height="18.822" filterUnits="userSpaceOnUse" color-interpolation-filters="sRGB"><feFlood flood-opacity="0" result="BackgroundImageFix"/><feColorMatrix in="SourceAlpha" values="0 0 0 0 0 0 0 0 0 0 0 0 0 0 0 0 0 0 127 0" result="hardAlpha"/><feOffset dy="4"/><feGaussianBlur stdDeviation="2"/><feComposite in2="hardAlpha" operator="out"/><feColorMatrix values="0 0 0 0 0 0 0 0 0 0 0 0 0 0 0 0 0 0 0.25 0"/><feBlend in2="BackgroundImageFix" result="effect1_dropShadow_1_1470"/><feBlend in="SourceGraphic" in2="effect1_dropShadow_1_1470" result="shape"/></filter></defs><symbol id="arrow-down" viewBox="0 0 18 9"><g fill="none"><path d="M16.92.95 10.4 7.47c-.77.77-2.03.77-2.8 0L1.08.95" stroke="#343434" stroke-width="1.5" stroke-miterlimit="10" stroke-linecap="round" stroke-linejoin="round"/></g></symbol><symbol id="checked" viewBox="0 0 24 20"><g fill="none"><g filter="url(#a)"><path d="m5 5.661 4.661 4.661L19 1" stroke="#343434" stroke-width="1.5" stroke-linecap="round" stroke-linejoin="round" shape-rendering="crispEdges"/></g></g></symbol><symbol id="close" viewBox="0 0 18 18"><g fill="none"><path d="m11.201 6.872-4.33 4.33M11.203 11.204 6.87 6.87" stroke="#343434" stroke-width="1.25" stroke-linecap="round" stroke-linejoin="round"/><path clip-rule="evenodd" d="M.695 9.036c0-6.255 2.086-8.34 8.342-8.34 6.255 0 8.34 2.085 8.34 8.34 0 6.256-2.085 8.342-8.34 8.342-6.256 0-8.342-2.086-8.342-8.342Z" stroke="#343434" stroke-width="1.25" stroke-linecap="round" stroke-linejoin="round"/></g></symbol><symbol id="illustration" viewBox="0 0 658 658"><g fill="none"><path d="M373.099 126.204h-59.391v74.973h59.391v-74.973Z" fill="#EBEBEB"/><path d="M347.898 199.492h-8.238v2.001h8.238v-2.001ZM345.305 152.011l-10.936 1.606-4.079 10.278 6.856 8.672 10.936-1.605 4.079-10.278-6.856-8.673Z" fill="#E0E0E0"/><path d="m350.424 158.657-10.936 1.605-4.092 10.265 6.856 8.686 10.949-1.606 4.08-10.278-6.857-8.672Z" fill="#FAFAFA"/><path d="M349.069 125.191h-8.238v1.711h8.238v-1.711Z" fill="#E0E0E0"/><path d="M448.256 156.565h-40.349v86.355h40.349v-86.355ZM499.501 248.961h-49.574v83.434h49.574v-83.434ZM505.528 155.077h47.074V78.473h1.671v76.604h43.573V76.775h-92.318v78.302ZM448.256 248.961h-40.349v83.434h40.349v-83.434ZM597.833 248.961h-43.56v83.434h43.56v-83.434ZM499.501 156.565h-49.574v86.355h49.574v-86.355ZM597.833 156.565h-43.56v86.355h43.56v-86.355ZM448.256 333.896h-40.349v75.183h40.349v-75.183ZM448.243 155.077V78.473h1.684v76.604h49.574V76.775h-91.594v78.302h40.336ZM499.501 333.896h-49.574v75.183h49.574v-75.183ZM597.833 333.896h-43.56v75.183h43.56v-75.183ZM552.602 156.565h-47.074v86.355h47.074v-86.355ZM552.602 333.896h-47.074v75.183h47.074v-75.183ZM552.602 248.961h-47.074v83.434h47.074v-83.434ZM136.153 156.565H95.805v86.355h40.348v-86.355ZM187.398 248.961h-49.573v83.434h49.573v-83.434ZM193.426 155.077h47.073V78.473h1.685v76.604h43.559V76.775h-92.317v78.302ZM136.153 248.961H95.805v83.434h40.348v-83.434ZM285.743 248.961h-43.559v83.434h43.559v-83.434ZM187.398 156.565h-49.573v86.355h49.573v-86.355ZM285.743 156.565h-43.559v86.355h43.559v-86.355ZM136.153 333.896H95.805v75.183h40.348v-75.183ZM136.153 155.077V78.473h1.672v76.604h49.573V76.775H95.805v78.302h40.348ZM187.398 333.896h-49.573v75.183h49.573v-75.183ZM285.743 333.896h-43.559v75.183h43.559v-75.183ZM240.499 156.565h-47.073v86.355h47.073v-86.355ZM240.499 333.896h-47.073v75.183h47.073v-75.183ZM240.499 248.961h-47.073v83.434h47.073v-83.434Z" fill="#F5F5F5"/><path d="M503.067 542.218v38.678h118.94v-38.678h-118.94Z" fill="#EBEBEB"/><path d="M498.08 531.401v10.817h128.086v-10.817H498.08Z" fill="#E0E0E0"/><path d="M562.129 580.896h59.878v-38.678h4.159v-10.817h-66.537v9.817l2.5 39.678ZM543.837 548.456h-24.122v5.817h24.122v-5.817Z" fill="#E0E0E0"/><path d="M547.588 561.55h-30.979v12.292h30.979V561.55Z" fill="#F5F5F5"/><path d="m532.453 488.697-.171-14.529 50.943 4.356 1.592 14.384-52.364-4.211Z" fill="#EBEBEB"/><path d="m543.452 480.77-.223 2.61 31.862 2.726.223-2.61-31.862-2.726ZM526.387 474.892l-.027-14.542 50.903 4.909 1.29 13.002-52.166-3.369Z" fill="#E0E0E0"/><path d="m526.374 462.337-.027 9.804 49.587 3.659-.829-9.054-48.731-4.409Z" fill="#fff"/><path d="M572.171 470.523c-.6.055-1.204.055-1.803 0l-4.87-.382c-4.119-.355-9.791-.882-16.068-1.513a1162.394 1162.394 0 0 1-16.042-1.724l-4.856-.606a8.114 8.114 0 0 1-1.763-.316 9.72 9.72 0 0 1 1.789 0l4.87.382c4.119.355 9.804.895 16.068 1.527 6.264.631 11.949 1.237 16.055 1.724l4.856.592a8.394 8.394 0 0 1 1.764.316ZM572.065 471.747a8.36 8.36 0 0 1-1.803 0l-4.935-.237a1019.3 1019.3 0 0 1-16.213-1.027 1460.78 1460.78 0 0 1-16.213-1.224l-4.895-.447a9.088 9.088 0 0 1-1.79-.263 8.234 8.234 0 0 1 1.803 0l4.922.237c4.158.223 9.896.592 16.226 1.026 6.33.434 12.054.882 16.2 1.237l4.909.447a10.29 10.29 0 0 1 1.789.251Z" fill="#F5F5F5"/><path d="m533.046 502.107-.198-14.542 50.956 4.316 1.447 12.976-52.205-2.75Z" fill="#E0E0E0"/><path d="M538.652 502.409a39.047 39.047 0 0 1-.619-7.159 36.548 36.548 0 0 1 .066-7.185c.428 2.362.635 4.759.619 7.159a36.548 36.548 0 0 1-.066 7.185ZM540.573 488.236c.388 2.361.555 4.754.5 7.146a39.1 39.1 0 0 1-.184 7.159 36.164 36.164 0 0 1-.5-7.146 37.644 37.644 0 0 1 .184-7.159Z" fill="#F5F5F5"/><path d="M545.206 494.619c8.883.987 19.332 1.539 28.359 2.342l-28.359-2.342Z" fill="#fff"/><path d="M573.565 496.961a24.729 24.729 0 0 1-4.171-.105c-2.632-.132-6.12-.356-10.041-.645-3.922-.29-7.462-.619-10.015-.934a21.867 21.867 0 0 1-4.132-.658 27.947 27.947 0 0 1 4.171.184l10.028.724c3.948.289 7.462.579 10.028.855 1.391.077 2.774.271 4.132.579ZM577.276 504.449a32.856 32.856 0 0 1-.658-6.501 32.014 32.014 0 0 1 0-6.58c.443 2.139.664 4.317.658 6.501a29.91 29.91 0 0 1 0 6.58ZM580.422 504.607a62.582 62.582 0 0 1-1.316-13.042c.557 2.122.888 4.297.987 6.488.334 2.168.444 4.364.329 6.554Z" fill="#F5F5F5"/><path d="M552.72 497.882c5.606.382 9.883.658 14.357.764l-14.357-.764Z" fill="#fff"/><path d="M567.196 498.646a75.628 75.628 0 0 1-14.358-.764 37.318 37.318 0 0 1 7.199 0c2.405.03 4.802.286 7.159.764Z" fill="#F5F5F5"/><path d="m536.454 530.506-.947-14.516 51.1 1.619 2.132 12.884-52.285.013Z" fill="#EBEBEB"/><path d="m538.481 528.677 49.731-.711-1.381-9.028-49.285-.921.935 10.66Z" fill="#fff"/><path d="m537.849 516.28-.474-14.542 51.035 3.33 1.698 12.949-52.259-1.737Z" fill="#F5F5F5"/><path d="m548.647 508.086-.17 2.613 31.911 2.075.17-2.613-31.911-2.075Z" fill="#E0E0E0"/><path d="M587.344 522.649c-.648.109-1.304.157-1.961.145l-5.264.132c-4.488.079-10.699.145-17.555.171-6.857.026-13.055 0-17.556 0l-5.264-.092a10.86 10.86 0 0 1-1.948-.119c.644-.11 1.296-.158 1.948-.144l5.264-.132c4.488-.079 10.699-.132 17.556-.171 6.856-.04 13.067 0 17.555 0l5.33.092c.634-.015 1.268.024 1.895.118ZM587.923 525.466c-.648.105-1.305.14-1.961.105h-5.369c-4.514 0-10.765 0-17.674-.145-6.909-.145-13.16-.224-17.674-.342l-5.356-.184a9.845 9.845 0 0 1-1.961-.158 10.547 10.547 0 0 1 1.961-.105h5.356c4.527 0 10.778 0 17.687.144 6.909.145 13.16.224 17.674.343l5.356.184c.657.003 1.312.056 1.961.158Z" fill="#EBEBEB"/><path d="M612.164 580.896c0 .197-126.784.342-283.151.342-156.367 0-283.177-.145-283.177-.342 0-.198 126.758-.343 283.177-.343 156.42 0 283.151.158 283.151.343Z" fill="#343434"/><path d="M89.488 417.501c-6.962 1.119-10.08 9.673-9.475 16.7.605 7.027 3.5 13.897 2.724 20.911-.974 8.896-7.712 16.424-8.488 25.346-.921 10.528 6.58 19.859 8.738 30.189 1.08 5.028.934 10.331 2.803 15.121a18.913 18.913 0 0 0 31.99 5.396 18.906 18.906 0 0 0 4.529-11.91c.145-8.08-4.83-15.7-4.224-23.754.447-5.961 3.948-11.607 3.185-17.529-.895-7.054-7.423-12.054-9.726-18.779-2.303-6.725-.092-14.134-.895-21.201-1.421-12.673-8.488-21.516-21.16-20.49Z" fill="#EF5579"/><path d="M53.877 478.866c-1.237 11.739 4.027 25.557 10.054 35.69a56.004 56.004 0 0 0 26.32 22.819c1.224.514 2.75.935 3.79.106a3.837 3.837 0 0 0 .961-3.014 57.681 57.681 0 0 0-41.098-55.614" fill="#EF5579"/><path d="M53.877 478.866c-1.237 11.739 4.027 25.557 10.054 35.69a56.004 56.004 0 0 0 26.32 22.819c1.224.514 2.75.935 3.79.106a3.837 3.837 0 0 0 .961-3.014 57.681 57.681 0 0 0-41.098-55.614" fill="#343434" opacity=".1"/><path d="M105.043 561.932a2.848 2.848 0 0 1-.342-.645c-.211-.513-.5-1.145-.829-1.921a330 330 0 0 0-3.106-7.067c-2.632-5.922-6.659-13.989-11.66-22.57a253.594 253.594 0 0 0-13.95-21.24 295.835 295.835 0 0 0-4.618-6.159l-1.316-1.684c-.29-.382-.435-.592-.408-.605.185.16.357.336.513.526l1.316 1.592c1.184 1.395 2.83 3.461 4.803 6.054A216.15 216.15 0 0 1 89.593 529.4a215.55 215.55 0 0 1 11.515 22.715 127.663 127.663 0 0 1 2.909 7.146l.723 1.974c.123.222.225.455.303.697ZM97.476 449.98c.074.373.118.752.132 1.132.052.798.131 1.877.236 3.237.185 2.869.448 6.922.764 11.844a4249.145 4249.145 0 0 0 2.632 39.256 7881.702 7881.702 0 0 0 2.921 39.23c.382 4.975.685 9.015.908 11.844.092 1.316.158 2.435.224 3.224.032.377.032.756 0 1.132a7.04 7.04 0 0 1-.171-1.118c-.079-.79-.197-1.869-.342-3.225-.263-2.868-.645-6.909-1.119-11.844a2156.496 2156.496 0 0 1-3.119-39.23c-1.079-15.331-1.842-29.07-2.408-39.19-.224-4.988-.421-9.041-.553-11.91 0-1.316-.079-2.448-.105-3.237a8.382 8.382 0 0 1 0-1.145Z" fill="#343434"/><path d="M86.672 545.192h29.412v21.596a14.107 14.107 0 0 1-14.107 14.108 14.124 14.124 0 0 1-14.108-13.358l-1.197-22.346Z" fill="#455A64"/><path d="M469.707 367.546a8.461 8.461 0 0 0-5.685-1.632v-1.777h-31.058s-.974 20.49 14.713 21.214c7.027.329 11.041-2.816 13.344-6.777 1.156.274 2.339.42 3.527.434a8.06 8.06 0 0 0 4.882-1.382 6.155 6.155 0 0 0 1.827-2.34 6.158 6.158 0 0 0 .516-2.924 5.99 5.99 0 0 0-2.066-4.816Zm-2.132 7.619c-1.316.987-3.698.843-5.264.566a28.009 28.009 0 0 0 1.513-6.751 5.899 5.899 0 0 1 3.882.908 2.993 2.993 0 0 1 .948 2.474 3.225 3.225 0 0 1-1.079 2.803Z" fill="#545DB6"/><path d="M454.902 362.268c.155-.23.246-.498.263-.776a2.404 2.404 0 0 0-1.316-1.869 7.243 7.243 0 0 0-1.645-.566 5.271 5.271 0 0 1-1.987-.894 2.957 2.957 0 0 1-1.013-2.303 5.161 5.161 0 0 1 .776-2.711c1.066-1.724 2.987-2.817 4.343-4.527a7.5 7.5 0 0 0 1.119-6.58 7.309 7.309 0 0 0-1.83-3.198 12.606 12.606 0 0 0-3.316-2.106 9.458 9.458 0 0 1-3.514-2.513 5.12 5.12 0 0 1-.921-2.08 3.468 3.468 0 0 1 .303-2.342c.206-.372.5-.688.855-.921l.355.592a6.593 6.593 0 0 0-2.55 2.945 6.587 6.587 0 0 0-.437 3.872 5.82 5.82 0 0 0 1.737 3.237 13.464 13.464 0 0 1 2.698 2.764c.322.587.477 1.252.448 1.921a4.223 4.223 0 0 1-.514 1.895 7.323 7.323 0 0 1-2.395 2.553c-1.908 1.211-3.869 1.816-5.33 2.922a5.598 5.598 0 0 0-2.329 4.079 6.81 6.81 0 0 0 .619 3.593 7.074 7.074 0 0 0 2.013 2.408l-.197-.092a4.208 4.208 0 0 1-.514-.342 5.524 5.524 0 0 1-1.539-1.856 6.965 6.965 0 0 1-.75-3.75 6.142 6.142 0 0 1 .644-2.343 6.268 6.268 0 0 1 1.764-2.079c1.513-1.184 3.527-1.842 5.264-3.001a7.007 7.007 0 0 0 2.184-2.368 3.185 3.185 0 0 0 0-3.159 13.813 13.813 0 0 0-2.632-2.632 6.314 6.314 0 0 1-1.908-3.619 7.262 7.262 0 0 1 3.317-7.527l.342.592a2.058 2.058 0 0 0-.632.671 3.699 3.699 0 0 0 .579 3.698 9.029 9.029 0 0 0 3.264 2.316 12.978 12.978 0 0 1 3.474 2.237 7.899 7.899 0 0 1 1.974 3.488 8.104 8.104 0 0 1-1.316 7.08c-1.487 1.803-3.382 2.856-4.369 4.422-.987 1.566-1.079 3.54.066 4.474 1.145.934 2.632.908 3.527 1.513a2.5 2.5 0 0 1 1.316 2.106 1.154 1.154 0 0 1-.224.619c0 .118-.053.157-.066.157Z" fill="#343434"/><path d="M261.305 199.795H109.873a4.25 4.25 0 0 0-4.251 4.251v36.335a4.25 4.25 0 0 0 4.251 4.25h151.432a4.251 4.251 0 0 0 4.251-4.25v-36.335a4.251 4.251 0 0 0-4.251-4.251Z" fill="#455A64"/><path d="M139.338 229.695a9.74 9.74 0 0 1-17.271-5.041 9.74 9.74 0 0 1 10.524-10.762 9.745 9.745 0 0 1 7.693 5.015 9.748 9.748 0 0 1 .812 7.415 9.746 9.746 0 0 1-1.758 3.373Z" fill="#fff"/><path d="M137.219 220.285a44.217 44.217 0 0 1-5.264 5.62l-1.316 1.237-.237.236-.237-.236a29.622 29.622 0 0 1-3.948-4.409 29.566 29.566 0 0 1 4.409 3.948h-.474l1.316-1.316a43.713 43.713 0 0 1 5.751-5.08Z" fill="#FF725E"/><path d="M249.961 218.93c0 .184-20.332.342-45.415.342s-45.402-.158-45.402-.342c0-.184 20.319-.342 45.402-.342 25.083 0 45.415.144 45.415.342ZM212.705 227.8c0 .184-11.752.342-26.241.342-14.489 0-26.32-.158-26.32-.342 0-.185 11.752-.343 26.32-.343s26.241.211 26.241.343Z" fill="#fff"/><path d="M261.305 251.08H109.873a4.25 4.25 0 0 0-4.251 4.25v36.335a4.25 4.25 0 0 0 4.251 4.251h151.432a4.251 4.251 0 0 0 4.251-4.251V255.33a4.251 4.251 0 0 0-4.251-4.25Z" fill="#455A64"/><path d="M139.338 280.979a9.735 9.735 0 0 1-15.052.158 9.735 9.735 0 0 1-1.178-10.754 9.74 9.74 0 0 1 14.73-3.103 9.747 9.747 0 0 1 3.584 6.539 9.747 9.747 0 0 1-2.084 7.16Z" fill="#fff"/><path d="M137.219 271.583a43.622 43.622 0 0 1-5.264 5.606l-1.316 1.316-.237.224-.237-.237a29.622 29.622 0 0 1-3.948-4.409 30.268 30.268 0 0 1 4.409 3.948h-.474l1.316-1.316a42.58 42.58 0 0 1 5.751-5.132Z" fill="#FF725E"/><path d="M249.961 270.214c0 .198-20.332.342-45.415.342s-45.402-.144-45.402-.342c0-.197 20.319-.342 45.402-.342 25.083 0 45.415.158 45.415.342ZM212.705 279.084c0 .198-11.752.342-26.241.342-14.489 0-26.32-.144-26.32-.342 0-.197 11.752-.342 26.32-.342s26.241.158 26.241.342Z" fill="#fff"/><path d="M261.305 302.377H109.873a4.25 4.25 0 0 0-4.251 4.251v36.335a4.25 4.25 0 0 0 4.251 4.25h151.432a4.251 4.251 0 0 0 4.251-4.25v-36.335a4.251 4.251 0 0 0-4.251-4.251Z" fill="#455A64"/><path d="M139.338 332.277a9.743 9.743 0 0 1-15.052.158 9.741 9.741 0 0 1 2.774-14.795 9.745 9.745 0 0 1 10.778.937 9.755 9.755 0 0 1 2.446 2.912 9.754 9.754 0 0 1 .812 7.415 9.746 9.746 0 0 1-1.758 3.373Z" fill="#fff"/><path d="M137.219 322.867a42.226 42.226 0 0 1-5.264 5.62l-1.316 1.237-.237.237-.237-.237a29.622 29.622 0 0 1-3.948-4.409 29.622 29.622 0 0 1 4.409 3.948h-.474l1.316-1.316a43.786 43.786 0 0 1 5.751-5.08Z" fill="#FF725E"/><path d="M249.961 321.512c0 .184-20.332.342-45.415.342s-45.402-.158-45.402-.342c0-.184 20.319-.342 45.402-.342 25.083 0 45.415.158 45.415.342ZM212.705 330.382c0 .184-11.752.342-26.241.342-14.489 0-26.32-.158-26.32-.342 0-.184 11.752-.342 26.32-.342s26.241.158 26.241.342Z" fill="#fff"/><path d="m356.202 472.154-2.514 108.742h-4.79l.303-108.465 7.001-.277ZM373.533 470.944l23.32 109.952h5.343l-19.411-109.952h-9.252ZM329.816 472.154l-25.807 108.742h-5.343l23.412-109.189 7.738.447Z" fill="#343434"/><path d="M403.815 352.609s29.557-1.684 26.609 32.518c-2.948 34.203-4.645 68.893-15.634 80.737-10.988 11.844-121.638 12.252-130.929 2.54-9.291-9.712 17.74-9.291 22.807-9.291 5.066 0 36.321 2.948 46.454-23.688 10.134-26.636 7.607-84.5 50.693-82.816Z" fill="#343434"/><path d="M405.71 352.688s22.595 4.632 20.49 28.281c-2.106 23.648-8.028 65.05-19.017 75.604-10.988 10.554-53.956 12.857-77.288 11.41-27.031-1.698-44.086-6.843-44.086-6.843s-4.935 3.171-3.448 5.264c1.487 2.092 14.673 10.264 78.565 8.896 63.892-1.369 59.457-10.791 62.102-21.056 2.645-10.265 8.225-65.195 7.449-77.263-.777-12.067-6.857-22.24-24.767-24.293Z" fill="#455A64"/><path d="M342.226 252.317a17.102 17.102 0 0 1 10.985-.056 17.102 17.102 0 0 1 8.755 6.636c2.856 4.421 3.527 9.975 6.435 14.357 2.066 3.093 5.119 5.37 7.646 8.107 2.527 2.737 4.593 6.356 3.948 10.028-.605 3.434-3.514 6.488-2.935 9.936.553 3.224 3.948 5.329 4.672 8.54.777 3.777-2.856 7.304-6.672 7.896-3.816.593-7.606-.881-11.199-2.303-3.593-1.421-7.409-2.842-11.212-2.158-4.409.803-7.791 4.264-11.647 6.58a24.109 24.109 0 0 1-26.32-1.566c-2.895-2.224-5.435-5.672-4.724-9.212.658-3.343 3.948-5.659 4.816-8.936 1.395-4.869-2.632-9.843-2.04-14.884.816-6.764 9.212-9.856 12.213-15.963 1.461-2.934 1.592-6.356 2.869-9.37 1.276-3.013 4.645-5.698 7.646-4.408" fill="#343434"/><path d="M339.383 313.879c.434-2.408-.342-12.541-.342-12.541s-8.975-1.132-9.37-10.305c-.395-9.172.527-30.268.527-30.268l16.542-7.896 14.476 16.45.276 44.468-22.109.092Z" fill="#FFBE9D"/><path d="M331.369 276.939a1.142 1.142 0 0 0 1.366 1.11 1.143 1.143 0 0 0 .842-1.546 1.139 1.139 0 0 0-1.037-.722 1.171 1.171 0 0 0-1.171 1.158ZM330.632 274.886c.145.158 1.013-.566 2.237-.618 1.224-.053 2.145.579 2.277.408.131-.172-.079-.356-.487-.645a2.949 2.949 0 0 0-3.593.171c-.381.316-.5.618-.434.684ZM344.792 276.939a1.15 1.15 0 0 0 .672 1.168 1.131 1.131 0 0 0 .932 0 1.14 1.14 0 0 0 .672-1.168 1.136 1.136 0 0 0-.286-.888 1.14 1.14 0 0 0-.852-.379 1.15 1.15 0 0 0-.852.379 1.15 1.15 0 0 0-.286.888ZM344.266 275.123c.145.158 1.013-.566 2.237-.619 1.224-.052 2.145.579 2.277.408.131-.171-.079-.355-.487-.644a2.942 2.942 0 0 0-1.816-.527 3.027 3.027 0 0 0-1.777.684c-.368.329-.5.619-.434.698ZM339.647 285.704a7.294 7.294 0 0 0-2.001-.303c-.316 0-.618-.079-.671-.303a1.9 1.9 0 0 1 .197-1.013c.277-.816.58-1.685.882-2.632a49.033 49.033 0 0 0 1.987-6.791 46.15 46.15 0 0 0-2.487 6.58c-.289.922-.579 1.79-.855 2.632-.183.414-.23.875-.132 1.316a.743.743 0 0 0 .527.474c.174.024.351.024.526 0 .67.111 1.353.124 2.027.04Z" fill="#343434"/><path d="M339.041 301.364a21.884 21.884 0 0 0 11.844-3.948s-2.79 6.685-11.739 6.146l-.105-2.198ZM340.094 288.941c.075-.388.244-.751.492-1.058.247-.308.567-.55.929-.705a1.92 1.92 0 0 1 1.593 0c.24.119.438.309.568.544.129.235.183.505.155.772a1.565 1.565 0 0 1-1.316 1.184 4.538 4.538 0 0 1-1.829-.132 1.324 1.324 0 0 1-.474-.171.435.435 0 0 1-.197-.434" fill="#EB996E"/><path d="M343.147 285.664c.079 0 .224.329.184.921a3.28 3.28 0 0 1-1.013 2.08 3.228 3.228 0 0 1-2.119.881c-.605 0-.948-.158-.921-.237.026-.079 1.434-.079 2.566-1.144 1.132-1.066 1.105-2.514 1.303-2.501ZM329.447 259.726a11.001 11.001 0 0 0 10.884 9.646l-2.488-5.475c2.211 2.567 4.501 5.264 7.541 6.738 3.04 1.474 7.001 1.711 9.581-.5.842 2.251.829 4.738 1.605 7.001.777 2.264 2.632 11.634 4.948 11.265 2.316-.368 3.725-9.751 4.277-11.844a19.474 19.474 0 0 0-4.303-17.015 23.36 23.36 0 0 0-19.214-8.107 16.28 16.28 0 0 0-8.922 3.145 12.435 12.435 0 0 0-4.382 7.014" fill="#343434"/><path d="M317.156 301.048a2.026 2.026 0 0 1-.632-.145 8.711 8.711 0 0 1-1.684-.71 11.95 11.95 0 0 1-4.79-4.685 11.374 11.374 0 0 1-.843-9.804 12.71 12.71 0 0 1 3.356-4.922 11.993 11.993 0 0 1 5.685-2.882 4.886 4.886 0 0 0 2.632-1.25 4.45 4.45 0 0 0 1.014-2.632c.158-1.935-.606-3.817-.816-5.712a8.401 8.401 0 0 1 1.066-5.264 8.495 8.495 0 0 1 3.408-3.237c1.316-.671 2.487-1.106 3.501-1.553a13.124 13.124 0 0 0 2.526-1.316 8.935 8.935 0 0 0 1.724-1.685 2.233 2.233 0 0 1-.302.566 5.394 5.394 0 0 1-1.316 1.316 12.798 12.798 0 0 1-2.527 1.461c-1.013.474-2.211.948-3.422 1.619a7.985 7.985 0 0 0-3.145 3.105 7.753 7.753 0 0 0-.947 4.922c.21 1.803 1.013 3.685.868 5.843a5.043 5.043 0 0 1-1.184 3.053 5.566 5.566 0 0 1-2.988 1.461 11.838 11.838 0 0 0-8.619 7.357 11.008 11.008 0 0 0 .671 9.343 12.286 12.286 0 0 0 4.5 4.698c1.395.764 2.264.987 2.264 1.053ZM376.731 313.103s.777-.527 2.132-1.501a12.59 12.59 0 0 0 4.501-5.264 7.286 7.286 0 0 0 .263-4.671 4.924 4.924 0 0 0-1.316-2.198 11.194 11.194 0 0 0-2.342-1.579 6.352 6.352 0 0 1-3.343-5.33c-.092-2.382 1.382-4.356 1.908-6.475a8.853 8.853 0 0 0-.987-6.238 15.948 15.948 0 0 0-3.948-4.671c-3.013-2.527-6.159-4.383-8.33-6.58a13.971 13.971 0 0 1-3.869-6.015 8.446 8.446 0 0 1-.316-1.934 2.306 2.306 0 0 1 0-.684c.109.859.285 1.708.526 2.54a14.37 14.37 0 0 0 3.948 5.75c2.159 2.067 5.264 3.843 8.396 6.409a16.554 16.554 0 0 1 4.093 4.83 9.446 9.446 0 0 1 1.066 6.725c-.605 2.303-2.013 4.198-1.908 6.29a5.71 5.71 0 0 0 3.119 4.909 12.027 12.027 0 0 1 2.461 1.684 5.617 5.617 0 0 1 1.421 2.475 7.896 7.896 0 0 1-.342 5 10.17 10.17 0 0 1-2.382 3.382 17.377 17.377 0 0 1-2.474 1.935c-.711.461-1.316.79-1.671.987a2.482 2.482 0 0 1-.606.224Z" fill="#343434"/><path d="M329.145 270.701a7.66 7.66 0 0 0 2.553-4.106c.375-1.601.573-3.238.592-4.882 0-.474 0-1.092-.5-1.211-.5-.118-.816.329-1.027.737a15.79 15.79 0 0 0-1.618 9.936l.289-.276" fill="#343434"/><path d="m306.181 574.381-.25-11.844 22.161-.605.54 17.305-1.316.132c-6.107.5-31.084 2.132-35.203 1-4.646-1.25 14.068-5.988 14.068-5.988Z" fill="#5CBEFE"/><path d="M320.591 579.303a7.671 7.671 0 0 1 2.711-4.803 7.391 7.391 0 0 1 5.132-1.75l.171 6.185-8.014.368Z" fill="#fff" opacity=".5"/><path d="M297.048 577.027s-6.58 2.079-5.699 3.145c.882 1.066 26.149.368 37.283-.921v-.487l-29.518 1.066s-.777-2.79-2.066-2.803Z" fill="#fff" opacity=".4"/><path d="M329 578.737h-.382l-1.092.092-4.027.29c-3.395.211-8.093.447-13.291.605a355.18 355.18 0 0 1-13.305.145c3.408 0 8.106-.092 13.305-.237 5.198-.145 9.883-.355 13.291-.513l4.027-.211h1.092l.382-.171Z" fill="#343434"/><path d="M299.101 580.172a9.685 9.685 0 0 0-.816-1.908 8.386 8.386 0 0 0-1.409-1.501 3.564 3.564 0 0 1 2.225 3.409ZM305.549 576.671c-.066 0-.395-.329-.724-.829-.329-.5-.566-.934-.5-.987.066-.053.382.342.724.842.233.286.403.618.5.974ZM307.312 575.671c0 .066-.408-.158-.79-.5-.381-.342-.671-.645-.631-.698.039-.052.408.158.803.501.394.342.671.644.618.697ZM308.391 573.552a2.548 2.548 0 0 1-1.158.185 2.96 2.96 0 0 1-1.158-.093 4.919 4.919 0 0 1 2.316-.092ZM308.734 572.065c-.383.276-.845.42-1.316.408a2.358 2.358 0 0 1-1.316-.131 7.084 7.084 0 0 1 1.316-.132c.434-.081.874-.13 1.316-.145Z" fill="#343434"/><path d="M304.733 574.763c-.47.078-.951.078-1.421 0a8.716 8.716 0 0 1-1.527-.29 4.418 4.418 0 0 1-.868-.329.812.812 0 0 1-.369-.434.564.564 0 0 1 .198-.579 2.628 2.628 0 0 1 3.25.645c.226.274.392.592.487.934.03.13.03.265 0 .395a4.093 4.093 0 0 0-.684-1.197 2.533 2.533 0 0 0-1.237-.764 2.253 2.253 0 0 0-1.698.158c-.21.184-.118.448.132.592.26.133.534.239.816.316.481.153.974.267 1.474.342.908.185 1.447.158 1.447.211Z" fill="#343434"/><path d="M304.378 574.842a1.32 1.32 0 0 1-.198-.987 2.44 2.44 0 0 1 .356-1.053c.115-.214.283-.395.488-.526.205-.132.44-.209.683-.224a.568.568 0 0 1 .46.645c-.034.227-.11.445-.223.645a4.45 4.45 0 0 1-.658.868c-.208.265-.48.474-.79.606 0 0 .276-.264.658-.724.213-.273.402-.564.566-.869.184-.316.303-.855 0-.908-.303-.052-.711.342-.921.632-.189.282-.319.6-.382.934-.05.318-.064.64-.039.961ZM328.316 572.684s-.632 0-1.632.105a6.925 6.925 0 0 0-5.685 4.79c-.303.961-.329 1.593-.369 1.593-.039 0 0-.158 0-.448.024-.406.095-.808.211-1.197a6.76 6.76 0 0 1 2.145-3.369 6.868 6.868 0 0 1 3.685-1.553 5.33 5.33 0 0 1 1.224 0c.143.004.285.031.421.079ZM325.762 563.524c.202 1.51.308 3.031.316 4.554a36.79 36.79 0 0 1 0 4.553 38.731 38.731 0 0 1-.316-4.54 40.929 40.929 0 0 1 0-4.567ZM317.748 577.211c-1.05.287-2.135.425-3.224.408a12.696 12.696 0 0 1-3.251-.158c0-.079 1.461 0 3.238-.105 1.776-.106 3.224-.224 3.237-.145Z" fill="#343434"/><path d="M322.091 577.092s-.105.303-.25.645c-.145.342-.211.632-.29.632-.079 0-.118-.355 0-.737.119-.382.487-.592.54-.54ZM323.736 575.013s-.079.276-.302.513c-.224.237-.448.395-.501.342-.052-.052.079-.276.303-.526.224-.25.382-.382.5-.329ZM325.987 574.013c0 .079-.303.079-.632.197-.329.119-.553.316-.605.263-.053-.052.118-.368.513-.513.395-.145.75-.013.724.053ZM327.684 573.526c0 .066-.092.184-.276.263-.184.079-.356.079-.382 0-.026-.079.092-.184.276-.263.185-.079.382-.066.382 0Z" fill="#343434"/><path d="m252.672 511.069 5.133-10.66 20.042 9.502-7.356 15.673-1.316-.513c-5.672-2.303-28.689-12.16-31.847-15.029-3.501-3.198 15.344 1.027 15.344 1.027Z" fill="#5CBEFE"/><path d="M263.292 521.978a7.715 7.715 0 0 1 4.58-3.053 7.476 7.476 0 0 1 5.369.763l-2.632 5.607-7.317-3.317Z" fill="#fff" opacity=".5"/><path d="M243.315 509.292s-6.777-1.105-6.501.224c.277 1.329 23.149 12.16 33.664 16.055l.184-.461-26.794-12.41s.592-2.803-.553-3.408Z" fill="#fff" opacity=".4"/><path d="M270.977 525.255a1.247 1.247 0 0 1-.355-.118l-1.026-.408-3.764-1.566c-3.132-1.316-7.422-3.264-12.134-5.488a362.595 362.595 0 0 1-11.923-5.883l-3.579-1.868-.961-.527-.329-.21.356.158.987.473 3.605 1.803a726.237 726.237 0 0 0 11.963 5.817 536.566 536.566 0 0 0 12.094 5.54l3.672 1.645 1 .461.394.171Z" fill="#343434"/><path d="M243.723 513.029a9.111 9.111 0 0 0 .145-2.053 10.05 10.05 0 0 0-.579-1.987c.506.533.804 1.228.842 1.961a2.917 2.917 0 0 1-.408 2.079ZM251.053 512.832c-.079 0-.197-.474-.263-1.066-.066-.592-.079-1.092 0-1.105.162.333.252.696.263 1.066.079.605.079 1.092 0 1.105ZM253.08 512.74c-.066 0-.276-.329-.487-.803-.211-.474-.303-.882-.224-.908.079-.026.277.329.474.803.197.474.303.882.237.908ZM255.001 511.332a2.625 2.625 0 0 1-1.105-.356 2.62 2.62 0 0 1-1-.605c.39.035.768.156 1.105.355.592.277 1.04.54 1 .606ZM255.988 510.174a3.377 3.377 0 0 1-2.461-.948c.82.319 1.64.635 2.461.948Z" fill="#343434"/><path d="M251.198 510.766a4.126 4.126 0 0 1-1.316-.619 8.678 8.678 0 0 1-1.237-.947 5.494 5.494 0 0 1-.631-.698.76.76 0 0 1-.119-.552.519.519 0 0 1 .151-.279.517.517 0 0 1 .283-.142 2.626 2.626 0 0 1 2.596 1.97c.099.38.111.777.036 1.162 0 .237-.118.368-.131.355a3.832 3.832 0 0 0-.066-1.316 2.63 2.63 0 0 0-.763-1.237 2.159 2.159 0 0 0-1.58-.619c-.276 0-.315.329-.144.566.167.237.356.458.566.658.364.354.756.68 1.171.974.71.448 1.211.684 1.184.724Z" fill="#343434"/><path d="M250.843 510.674a1.395 1.395 0 0 1 .263-.974c.206-.315.481-.581.803-.776a1.427 1.427 0 0 1 1.382-.145.58.58 0 0 1 .118.789 1.587 1.587 0 0 1-.487.461 4.342 4.342 0 0 1-.987.5c-.307.131-.64.189-.974.171 0 0 .356-.105.908-.355a5.01 5.01 0 0 0 .908-.513c.303-.185.658-.619.356-.83a1.321 1.321 0 0 0-1.106.145c-.293.17-.552.394-.763.658a4.15 4.15 0 0 0-.421.869ZM273.162 519.583s-.539-.329-1.5-.645a6.945 6.945 0 0 0-7.225 1.698c-.724.711-1.026 1.316-1.066 1.25a1.4 1.4 0 0 1 .197-.408c.208-.348.451-.674.724-.974a6.769 6.769 0 0 1 7.436-1.75c.378.145.74.331 1.079.553.25.158.368.263.355.276ZM275.044 510.266a38.681 38.681 0 0 1-1.777 4.198 39.174 39.174 0 0 1-2.013 4.079 38.85 38.85 0 0 1 1.777-4.198 36.236 36.236 0 0 1 2.013-4.079ZM261.687 518.833a12.35 12.35 0 0 1-3.053-1.092 13.149 13.149 0 0 1-2.83-1.619c0-.066 1.316.632 2.935 1.382 1.619.75 2.974 1.263 2.948 1.329Z" fill="#343434"/><path d="M265.621 520.689c0 .079-.237.223-.513.46-.276.237-.474.474-.54.434-.065-.039 0-.368.369-.631.368-.263.671-.329.684-.263ZM267.977 519.544c0 .079-.211.223-.513.329-.303.105-.579.158-.606.079-.026-.079.211-.211.514-.329.302-.119.579-.145.605-.079ZM270.491 519.715s-.316-.079-.658-.106c-.343-.026-.632 0-.658 0-.027 0 .263-.263.697-.21.434.053.671.263.619.316ZM272.188 520.031s-.171.118-.368.105c-.197-.013-.355-.092-.342-.158.013-.066.171-.132.355-.119.184.014.355.093.355.172Z" fill="#343434"/><path d="m398.748 356.189-4.711-23.688c-3.422-19.293-30.531-20.609-30.531-20.609l-21.346-.355s-15.792-2.119-25.517 8.856c-10.068 11.357-22.451 24.794-22.451 24.794l9.449 23.78 22.372-18.424a22.921 22.921 0 0 0-3.001 10.752c0 6.303 6.58 9.212 6.58 9.212l2.04 19.121-6.58 30.966 69.498-2.79a69.086 69.086 0 0 0-10.278-29.202l1.316-32.413h13.16Z" fill="#5CBEFE"/><path d="M368.967 329.697c.186.487.31.996.368 1.514.224 1.118.487 2.5.816 4.145.711 3.659 1.632 8.423 2.632 13.687 1 5.264 1.895 10.212 2.448 13.739.29 1.763.487 3.198.605 4.185.095.511.126 1.033.093 1.552a7.012 7.012 0 0 1-.356-1.513c-.223-1.119-.5-2.5-.816-4.145-.71-3.659-1.632-8.423-2.632-13.687-1-5.264-1.895-10.199-2.447-13.739a97.403 97.403 0 0 1-.606-4.185 7.996 7.996 0 0 1-.105-1.553Z" fill="#343434"/><path d="M399.156 354.952c-4.271.365-8.559.497-12.844.394-4.284.127-8.571.026-12.844-.302a119.42 119.42 0 0 1 12.844-.382c4.283-.127 8.571-.03 12.844.29Z" fill="#343434"/><path d="M401.801 376.376c-1.316-11.344-3.198-21.056-3.198-21.056h-24.609s3.053 14.476 2.382 17.766c-.605 2.908-48.284 4.83-60.707 5.027-.75-.553-1.816.382-2.777-.46a10.203 10.203 0 0 1-2.119-2.632 15.956 15.956 0 0 1-1.697-3.843 1.315 1.315 0 0 0-2.356-.54c-.5 1.066.066 4.606 2.422 8.028 2.355 3.421-3.83 1.645-6.094 1.039-2.263-.605-9.369-2.145-10.093-1.579-1.079.829-.408 2.159 1.868 2.711 2.277.553 9.002 2.632 8.633 3.948-.368 1.316-11.844-2.066-11.844-2.066s-2.342-1.092-2.816.29c-.842 2.5 11.62 5.027 12.818 5.264.829.158.474 1.487-.408 1.316-.882-.171-11.396-3.514-12.278-.974-.685 1.947 10.238 2.184 12.041 4.106 1.803 1.921-8.264-1.04-8.843.842-.211.711 3.948 1.026 10.001 1.882 6.189.59 12.407.81 18.622.658 13.962.763 63.339 1.79 73.88 1.039 12.265-.934 7.646-16.818 7.172-20.766Z" fill="#FFBE9D"/><path d="M323.604 356.86c.192-1.083.474-2.149.843-3.185.289-.987.645-2.145 1.092-3.422a43.54 43.54 0 0 1 .75-1.987c.158-.368.355-.684.448-.987.104-.331.148-.679.131-1.026a17.694 17.694 0 0 0-.329-2.185c-.131-.71-.263-1.395-.395-2.066-.21-1.316-.421-2.448-.605-3.527a16.068 16.068 0 0 1-.395-3.277c.404 1.028.695 2.095.869 3.185.237 1.066.487 2.237.75 3.487l.434 2.08c.18.752.298 1.518.355 2.29.022.423-.036.847-.171 1.25a9.912 9.912 0 0 1-.473 1.039c-.277.658-.54 1.316-.777 1.948-.434 1.198-.855 2.316-1.224 3.343a13.326 13.326 0 0 1-1.303 3.04ZM352.293 267.148c1.895 2.448 3.948 5.264 3.54 8.33-.329 2.632-2.474 5.067-2.119 7.752.422 3.092 3.948 5.119 4.185 8.238.145 2.632-2.079 4.579-3.645 6.58a14.247 14.247 0 0 0-2.882 10.528 12.305 12.305 0 0 0 6.014 8.935 10.832 10.832 0 0 0 10.673-.105 15.09 15.09 0 0 0 5.882-8.251c1.474-4.238 1.869-9.212-.645-12.95-1.026-1.5-2.513-2.79-2.842-4.579-.421-2.264 1.184-4.396 1.434-6.686.343-3.066-1.776-5.869-4.119-7.896-2.342-2.026-5.106-3.632-6.856-6.172" fill="#343434"/><path d="M369.796 336.106c.855 13.16 1.316 25.333 1.632 38.533a10.057 10.057 0 0 0 4.948-1.553c.671-5.632-3.593-22.78-6.58-36.98Z" fill="#343434" opacity=".3"/><path d="M337.712 330.04a5.267 5.267 0 0 1 .303-2.988c.447-1.605 1.145-2.776 1.316-2.697a8.916 8.916 0 0 1-.658 2.882 9.445 9.445 0 0 1-.961 2.803ZM323.736 330c-.106.158-1.04-.303-1.948-1.171-.908-.869-1.434-1.777-1.316-1.882.119-.105.882.566 1.75 1.382.869.816 1.606 1.513 1.514 1.671ZM310.379 340.923s-.119-.118-.198-.355h.303a8.664 8.664 0 0 1 0 3.25 5.907 5.907 0 0 1-1.316 3.356 26.67 26.67 0 0 1 .697-3.474c.237-1.316.29-2.553.369-3.119h.303c-.079.263-.106.329-.158.342ZM309.786 354.583a6.92 6.92 0 0 1-2.882-.763c-1.526-.592-2.711-1.211-2.632-1.395 1.01.039 1.998.3 2.895.763 1.501.592 2.685 1.211 2.619 1.395ZM321.104 347.016c-.184 0-.158-1.184.276-2.54.435-1.355 1.04-2.329 1.211-2.25.171.079-.158 1.145-.566 2.448-.408 1.302-.789 2.368-.921 2.342ZM332.948 317.064c0 .184-.987.382-2.224.447-1.237.066-2.237 0-2.25-.237-.013-.236.987-.394 2.224-.447 1.237-.053 2.25.039 2.25.237ZM335.356 342.765c-.118.132-1.184-.658-1.895-2.105a3.78 3.78 0 0 1-.526-2.79c.197 0 .474 1.171 1.132 2.487.658 1.316 1.434 2.264 1.289 2.408ZM358.728 337.251c.132.132-.697 1.185-1.947 2.264-1.251 1.079-2.422 1.737-2.527 1.579-.105-.158.855-1.053 2.079-2.106 1.224-1.052 2.264-1.868 2.395-1.737ZM347.174 333.619c.105.158-.618.882-1.632 1.632-1.013.75-1.934 1.25-2.04 1.092-.105-.158.619-.881 1.632-1.632 1.014-.75 1.922-1.237 2.04-1.092ZM352.846 324.17a5.431 5.431 0 0 1-2.803-1.553c-1.316-1.171-2.119-2.434-1.961-2.539.158-.106 1.106.908 2.408 2.013 1.303 1.105 2.448 1.908 2.356 2.079ZM366.151 320.485c.105.145-.632.909-1.672 1.685-1.039.776-1.974 1.316-2.092 1.158-.119-.158.632-.908 1.671-1.698 1.04-.789 1.974-1.302 2.093-1.145ZM377.258 325.749a8.524 8.524 0 0 1 .421-2.803c.302-1.513.5-2.763.697-2.75a4.85 4.85 0 0 1 0 2.882c-.329 1.579-.947 2.737-1.118 2.671ZM379.219 338.423c-.132.131-1.316-.751-2.632-1.988s-2.33-2.342-2.198-2.474c.132-.131 1.316.737 2.632 1.974s2.329 2.343 2.198 2.488ZM388.22 333.093c-.171-.079.171-1.316.763-2.632s1.224-2.474 1.395-2.395a5.99 5.99 0 0 1-.763 2.632c-.606 1.395-1.237 2.474-1.395 2.395ZM388.681 348.319a8.206 8.206 0 0 1 1.316-3.066 8.514 8.514 0 0 1 1.882-2.725 8.139 8.139 0 0 1-1.316 3.054 8.506 8.506 0 0 1-1.882 2.737ZM379.811 350.648c-.158.119-1.053-.829-2.027-2.119-.974-1.289-1.618-2.408-1.474-2.526.145-.119 1.066.829 2.027 2.118.961 1.29 1.619 2.409 1.474 2.527ZM363.071 357.162a9.71 9.71 0 0 1 1.803-3.79 9.557 9.557 0 0 1 2.79-3.119 20.171 20.171 0 0 1-2.211 3.501 20.419 20.419 0 0 1-2.382 3.408ZM351.043 355.952a9.488 9.488 0 0 1-1.856-3.04 9.648 9.648 0 0 1-1.25-3.343 18.77 18.77 0 0 1 3.106 6.383ZM335.896 352.425a11.92 11.92 0 0 1-2.764 2.856 11.701 11.701 0 0 1-3.198 2.355c-.131-.145 1.106-1.421 2.751-2.869a11.546 11.546 0 0 1 3.211-2.342ZM341.647 368.875c-.158.118-1.237-1.106-2.632-2.527s-2.632-2.527-2.514-2.632a7.783 7.783 0 0 1 3.027 2.132 7.625 7.625 0 0 1 2.119 3.027ZM352.254 369.375a6.577 6.577 0 0 1 1.171-3.356c.987-1.711 2.185-2.816 2.316-2.632a16.374 16.374 0 0 1-1.737 2.987 16.823 16.823 0 0 1-1.75 3.001ZM367.164 371.112a11.69 11.69 0 0 1-3.251-2.277 12.026 12.026 0 0 1-2.829-2.803 11.753 11.753 0 0 1 3.264 2.277 11.971 11.971 0 0 1 2.816 2.803ZM365.848 331.922a5.506 5.506 0 0 1-2.777-1.316c-1.395-1.014-2.25-2.132-2.119-2.264.132-.132 1.185.737 2.527 1.711 1.342.974 2.369 1.697 2.369 1.869ZM344.305 399.367c.079.184-.987.75-2.171 1.631-1.185.882-2.067 1.711-2.211 1.593-.145-.119.526-1.211 1.803-2.145 1.276-.935 2.526-1.251 2.579-1.079ZM360.229 405.868a14.392 14.392 0 0 1-2.172-5.883 14.582 14.582 0 0 1 2.172 5.883ZM376.284 400.182c.145.132-.684 1.211-1.829 2.409-1.145 1.197-2.185 2.066-2.317 1.934-.131-.131.685-1.21 1.83-2.408s2.184-2.053 2.316-1.935ZM388.22 408.842c-.145.144-1.211-.698-2.79-1-1.579-.303-2.882 0-2.948-.172a3.486 3.486 0 0 1 3.093-.5c1.737.356 2.737 1.566 2.645 1.672Z" fill="#FAFAFA"/><path d="M394.708 414.698s-90.883-19.043-99.687-14.871c-8.804 4.172-49.376 104.464-49.376 104.464l32.676 14.055 35.15-85.224s63.629 23.24 74.749 20.898c11.12-2.342 6.488-39.322 6.488-39.322Z" fill="#455A64"/><path d="M354.083 420.041c-1.382.46-53.956 22.082-57.667 29.018-3.711 6.935 5.396 122.309 5.396 122.309h29.899l-1.842-102.53 58.351-14.818-34.137-33.979Z" fill="#455A64"/><path d="M388.523 454.296a5.134 5.134 0 0 1-.856-.105l-2.447-.434c-2.119-.395-5.185-1-8.962-1.803-7.541-1.592-17.938-3.948-29.255-7.251a318.155 318.155 0 0 1-15.792-5.001c-4.79-1.658-9.12-3.316-12.66-4.83-1.79-.724-3.382-1.447-4.777-2.079-1.395-.632-2.632-1.171-3.566-1.671l-2.211-1.119a4.178 4.178 0 0 1-.764-.434c.28.083.553.189.816.316l2.277 1c.974.447 2.185.974 3.593 1.566 1.408.592 3.013 1.316 4.803 1.974 3.566 1.461 7.896 3 12.699 4.685 4.804 1.684 10.16 3.303 15.792 4.935 11.305 3.25 21.662 5.724 29.176 7.435l8.91 2.014 2.421.552c.275.056.544.14.803.25ZM296.429 475.563a9.07 9.07 0 0 1-.276-1.724c-.132-1.25-.303-2.843-.5-4.738-.198-1.895-.408-4.408-.645-7.014a31.447 31.447 0 0 1 0-8.699 13.471 13.471 0 0 1 4.356-7.514 22.944 22.944 0 0 1 5.988-3.856 46.295 46.295 0 0 1 4.435-1.75 8.795 8.795 0 0 1 1.684-.487c0 .118-2.316.947-5.909 2.632a23.016 23.016 0 0 0-5.764 3.869 13.162 13.162 0 0 0-4.119 7.185 32.976 32.976 0 0 0 0 8.515c.197 2.632.369 4.987.513 7.027.145 2.04.211 3.501.277 4.751.053.601.04 1.205-.04 1.803ZM322.657 465.653a22.09 22.09 0 0 1 7.08 3.119 22.36 22.36 0 0 1-7.08-3.119Z" fill="#343434"/><path d="M325.302 462.495a39.586 39.586 0 0 1 2.382 3.369c1.316 1.803 2.724 3.053 2.632 3.211a7.72 7.72 0 0 1-3.145-2.803 7.57 7.57 0 0 1-1.869-3.777Z" fill="#343434"/><path d="M336.778 467.18s-.092.25-.461.474a3.524 3.524 0 0 1-1.737.408c-.83-.029-1.66-.007-2.487.066a1.747 1.747 0 0 0-1.487 1.895 47.72 47.72 0 0 1-.369 7.988 46.423 46.423 0 0 1-.316-8.028 2.932 2.932 0 0 1 .566-1.698 2.406 2.406 0 0 1 1.5-.789 15.635 15.635 0 0 1 2.632.079 4.361 4.361 0 0 0 2.159-.395Z" fill="#343434"/><path opacity=".3" d="m329.605 399.235 61.945 4.974-2.646-6.935-58.693-.842-.606 2.803Z" fill="#343434"/><path d="M497.264 385.641H132.087v9.738h19.529l-10.067 185.214 5.553.303 10.094-185.517h320.157l8.58 185.372h5.58l-8.594-185.372h14.345v-9.738Z" fill="#343434"/><path d="m238.591 328.052 20.253 59.168h91.699l-.684-3.04-37.072-1.158-17.082-55.009-57.114.039Z" fill="#343434"/><path d="M279.229 355.833c.605 2.435-.434 4.804-2.316 5.264-1.882.461-3.948-1.053-4.514-3.487-.566-2.435.434-4.79 2.316-5.264 1.882-.474 3.909 1.066 4.514 3.487Z" fill="#fff"/></g></symbol><symbol id="logo" viewBox="0 0 210 40"><g fill="none"><path fill-rule="evenodd" clip-rule="evenodd" d="M27.142 40c4.388 0 7.978-3.59 7.978-7.978V13.356c0-5.769-2.932-8.003-7.978-7.978-2.15.01-8.7 6.82-15.05 13.267-4.668 4.74-9.389 9.01-11.355 11.635C-.985 32.578-.125 40 8.05 40h19.091Z" fill="#5CBEFE"/><path fill-rule="evenodd" clip-rule="evenodd" d="M16.343 0c-4.388 0-7.978 3.59-7.978 7.978v18.666c0 5.77 2.932 8.003 7.978 7.978 2.15-.01 8.7-6.82 15.05-13.267 4.668-4.74 9.389-9.01 11.355-11.635C44.47 7.422 43.609 0 35.434 0H16.343Z" fill="#EF5579"/><path fill-rule="evenodd" clip-rule="evenodd" d="M35.12 17.651v-4.295c0-5.769-2.932-8.003-7.978-7.978-2.15.01-8.7 6.82-15.05 13.267a293.582 293.582 0 0 1-3.727 3.704v4.295c0 5.77 2.932 8.003 7.978 7.978 2.15-.01 8.7-6.82 15.05-13.267a294.113 294.113 0 0 1 3.727-3.704Z" fill="#545DB6"/><path d="M63.126 30.788c-1.917 0-3.605-.393-5.066-1.178a8.421 8.421 0 0 1-3.409-3.395c-.812-1.47-1.218-3.231-1.218-5.285v-.78c0-1.926.383-3.628 1.15-5.107a8.503 8.503 0 0 1 3.272-3.49c1.424-.85 3.112-1.274 5.066-1.274 1.369 0 2.66.187 3.874.561a9.354 9.354 0 0 1 3.327 1.821v4.97h-3.217l-.439-2.985a6.47 6.47 0 0 0-.985-.548 5.381 5.381 0 0 0-1.123-.355 6.484 6.484 0 0 0-1.3-.124c-1.078 0-2.008.26-2.793.78-.785.521-1.392 1.265-1.821 2.232-.43.968-.644 2.131-.644 3.491v.808c0 1.314.22 2.465.657 3.45.448.977 1.078 1.734 1.89 2.273.812.538 1.757.808 2.834.808.566 0 1.132-.06 1.697-.178a10.098 10.098 0 0 0 1.588-.493l.452-2.807h3.218v4.874c-.785.53-1.776.986-2.971 1.37-1.187.373-2.533.56-4.039.56Zm15.99 0c-1.496 0-2.778-.315-3.846-.945a6.35 6.35 0 0 1-2.437-2.656c-.557-1.141-.835-2.46-.835-3.957v-.274c0-1.478.278-2.783.835-3.915a6.35 6.35 0 0 1 2.437-2.656c1.058-.648 2.332-.972 3.82-.972 1.487 0 2.76.32 3.82.958a6.26 6.26 0 0 1 2.422 2.656c.566 1.132.85 2.442.85 3.93v.273c0 1.488-.284 2.802-.85 3.943a6.26 6.26 0 0 1-2.423 2.656c-1.05.64-2.314.959-3.792.959Zm0-3.341c.64 0 1.155-.173 1.548-.52.401-.347.694-.835.876-1.465.192-.63.287-1.374.287-2.232v-.274c0-.83-.095-1.556-.287-2.176-.183-.63-.475-1.123-.876-1.479-.402-.356-.927-.534-1.575-.534-.638 0-1.159.178-1.56.534-.402.356-.694.849-.877 1.479-.182.62-.273 1.346-.273 2.176v.274c0 .858.09 1.607.273 2.245.183.63.475 1.119.877 1.465.401.338.93.507 1.588.507Zm8.94 3.053v-2.587l2.11-.425v-8.776l-2.11-.424v-2.601h8.174v2.6l-1.698.425v2.437h1.356l1.958-3.04c.556-.884 1.145-1.546 1.766-1.984.63-.447 1.396-.671 2.3-.671.538 0 1.008.068 1.41.205.411.137.794.315 1.15.534l-.753 3.04c-.21-.064-.37-.11-.479-.137a1.312 1.312 0 0 0-.342-.041c-.302 0-.594.1-.877.3a2.8 2.8 0 0 0-.753.781l-1.643 2.52 3.081 4.928 2.04.329V30.5h-6.038l-2.71-5.326h-1.466v2.314l1.698.425V30.5h-8.173Zm18.073 5.695v-2.6l1.889-.425V18.712l-2.109-.424v-2.601h6.175l.178 1.697c.42-.63.926-1.113 1.52-1.45.593-.348 1.314-.521 2.163-.521 1.177 0 2.186.324 3.025.972.849.648 1.497 1.556 1.944 2.724.457 1.16.685 2.515.685 4.066v.288c0 1.46-.228 2.743-.685 3.847-.447 1.104-1.099 1.962-1.957 2.574-.849.602-1.871.904-3.067.904-.767 0-1.442-.137-2.026-.411a4.221 4.221 0 0 1-1.493-1.246v4.039l1.808.424v2.601h-8.05Zm8.46-8.748c.95 0 1.625-.356 2.027-1.068.401-.712.602-1.684.602-2.916v-.288c0-.876-.091-1.642-.274-2.3-.182-.657-.47-1.168-.862-1.533-.384-.365-.89-.548-1.52-.548a2.5 2.5 0 0 0-1.287.329c-.374.21-.675.525-.904.945v6.27c.229.365.53.643.904.835.383.183.822.274 1.314.274Zm13.54 3.34c-1.46 0-2.633-.396-3.518-1.19-.876-.804-1.314-1.885-1.314-3.245 0-.922.246-1.739.739-2.45.502-.713 1.25-1.27 2.245-1.671.995-.402 2.232-.603 3.71-.603h1.767v-.985c0-.658-.192-1.2-.575-1.63-.375-.429-.95-.643-1.726-.643-.374 0-.716.046-1.026.137-.302.091-.58.223-.835.397l-.315 1.917h-3.122l-.055-3.97c.804-.411 1.662-.754 2.574-1.027.913-.274 1.926-.411 3.04-.411 1.98 0 3.546.456 4.696 1.369s1.725 2.213 1.725 3.902V27.105c.009.191.032.378.068.561l1.561.247V30.5h-5.257a9.778 9.778 0 0 1-.343-.74 3.725 3.725 0 0 1-.246-.848c-.466.575-1 1.031-1.602 1.369-.602.338-1.333.507-2.191.507Zm1.26-3.162a3.1 3.1 0 0 0 1.328-.301 2.75 2.75 0 0 0 1.041-.822v-2.245h-1.739c-.767 0-1.356.173-1.766.52-.402.347-.603.776-.603 1.287 0 .493.155.876.466 1.15.319.274.744.411 1.273.411Zm12.856 2.875v-2.587l2.094-.425v-8.474h-2.286l-.151 1.916h-3.285v-5.243h15.908v5.243h-3.299l-.151-1.916h-2.341v8.474l2.081.425V30.5h-8.57Zm14.087 0v-2.587l2.095-.425v-8.776l-2.095-.424v-2.601h8.311v2.6l-1.821.425v5.531l.082.014 4.312-8.57h6.462v2.6l-2.08.425v8.776l2.08.425V30.5h-8.296v-2.587l1.834-.425V21.93l-.082-.014-4.312 8.584h-6.49Zm19.592 0v-2.587l2.108-.425v-8.776l-2.108-.424v-2.601h8.173v2.6l-1.698.425v2.437h1.356l1.958-3.04c.556-.884 1.145-1.546 1.766-1.984.63-.447 1.396-.671 2.3-.671.538 0 1.008.068 1.41.205.411.137.794.315 1.15.534l-.753 3.04c-.21-.064-.37-.11-.479-.137a1.312 1.312 0 0 0-.342-.041c-.302 0-.594.1-.877.3a2.8 2.8 0 0 0-.753.781l-1.643 2.52 3.081 4.928 2.04.329V30.5h-6.038l-2.711-5.326h-1.465v2.314l1.698.425V30.5h-8.173Zm23.096.288c-1.46 0-2.633-.398-3.519-1.192-.876-.803-1.314-1.884-1.314-3.244 0-.922.247-1.739.739-2.45.502-.713 1.251-1.27 2.246-1.671.995-.402 2.231-.603 3.71-.603h1.766v-.985c0-.658-.192-1.2-.575-1.63-.374-.429-.949-.643-1.725-.643-.374 0-.716.046-1.027.137a3.063 3.063 0 0 0-.835.397l-.315 1.917h-3.121l-.055-3.97c.803-.411 1.661-.754 2.574-1.027.913-.274 1.926-.411 3.039-.411 1.981 0 3.546.456 4.696 1.369s1.725 2.213 1.725 3.902V27.105c.009.191.032.378.069.561l1.56.247V30.5h-5.257a9.802 9.802 0 0 1-.342-.74 3.728 3.728 0 0 1-.247-.848 5.54 5.54 0 0 1-1.601 1.369c-.603.338-1.333.507-2.191.507Zm1.26-3.163a3.1 3.1 0 0 0 1.328-.301c.429-.201.775-.475 1.04-.822v-2.245h-1.739c-.766 0-1.355.173-1.766.52-.401.347-.602.776-.602 1.287 0 .493.155.876.465 1.15.32.274.744.411 1.274.411Z" fill="#343434"/></g></symbol><symbol id="plus" viewBox="0 0 14 14"><g fill="none"><path d="M1 7h12M7 13V1" stroke="#3CA9F0" stroke-width="1.5" stroke-linecap="round" stroke-linejoin="round"/></g></symbol></svg>